<svg xmlns="http://www.w3.org/2000/svg" width="26" height="26" viewBox="0 0 33.353 33.353"><defs><style>.a{fill:#f5f4f5;}</style></defs><path class="a" d="M16.676,0A16.676,16.676,0,1,0,33.353,16.676,16.695,16.695,0,0,0,16.676,0Zm0,30.769A14.093,14.093,0,1,1,30.769,16.676,14.109,14.109,0,0,1,16.676,30.769Z"/><g transform="translate(8.926 8.81)"><path class="a" d="M151.231,141.7h-5.167V136.53a1.292,1.292,0,1,0-2.584,0V141.7h-5.167a1.292,1.292,0,1,0,0,2.584h5.167v5.167a1.292,1.292,0,1,0,2.584,0V144.28h5.167a1.292,1.292,0,1,0,0-2.584Z" transform="translate(-137.022 -135.238)"/></g></svg>