<svg xmlns="http://www.w3.org/2000/svg" width="26" height="26" viewBox="0 0 33.168 33.168"><defs><style>.a{fill:#ff3295;fill-rule:evenodd;}</style></defs><g transform="translate(-74.711 -363.832)"><path class="a" d="M19.584,36.168A16.584,16.584,0,1,1,36.168,19.584,16.584,16.584,0,0,1,19.584,36.168Zm0-31.589a15,15,0,1,0,15,15A15.005,15.005,0,0,0,19.584,4.579ZM32.219,20.374h-.79a.79.79,0,1,1,0-1.579h.79a.79.79,0,1,1,0,1.579Zm-4.755,6.479a.745.745,0,0,1-.206.406.769.769,0,0,1-.892.136l.046.047.006.006h0c-.128-.053-.242-.1-.366-.154a48.915,48.915,0,0,1-7.792-3.9,8.919,8.919,0,0,1-1.417-1.068c-.036-.034-1.965-1.9-5.121-9.575h0l.053.053c-.008-.016-.009-.033-.016-.049a.762.762,0,0,1-.03-.522.736.736,0,0,1,.181-.321.764.764,0,0,1,.869-.143.182.182,0,0,1,.022.008l-.018-.02-.034-.033h0c7.671,3.156,9.541,5.086,9.575,5.121s1.965,1.906,5.121,9.575h0l-.035-.035-.018-.017a.856.856,0,0,1,.038.115A.779.779,0,0,1,27.465,26.853Zm-6.265-8.9c-.017-.017-1.592-1.522-7.255-4.006,2.484,5.663,3.992,7.239,4.024,7.272.017.017,1.592,1.523,7.255,4.006C22.739,19.56,21.231,17.984,21.2,17.952Zm-1.616.843a.79.79,0,1,1-.79.79A.789.789,0,0,1,19.584,18.794Zm0-10.266a.789.789,0,0,1-.79-.79v-.79a.79.79,0,1,1,1.579,0v.79A.789.789,0,0,1,19.584,8.528Zm0,22.112a.789.789,0,0,1,.79.79v.79a.79.79,0,1,1-1.579,0v-.79A.789.789,0,0,1,19.584,30.64ZM7.738,20.374h-.79a.79.79,0,1,1,0-1.579h.79a.79.79,0,1,1,0,1.579Z" transform="translate(71.711 360.832)"/></g></svg>