<svg xmlns="http://www.w3.org/2000/svg" width="26" height="26" viewBox="0 0 33.471 33.145"><defs><style>.a{fill:#f5f4f5;}</style></defs><g transform="translate(0 -40.992)"><g transform="translate(0 40.993)"><path class="a" d="M30.7,44.056a8.649,8.649,0,0,0-13.205,0l-.757.848-.756-.847a8.65,8.65,0,0,0-13.207,0,11.5,11.5,0,0,0,0,14.977L15.927,73.757a1.049,1.049,0,0,0,1.617,0L30.7,59.032a11.5,11.5,0,0,0,0-14.977ZM29.08,57.025,16.735,70.843,4.392,57.025a8.376,8.376,0,0,1,0-10.963A6.657,6.657,0,0,1,9.375,43.75a6.66,6.66,0,0,1,4.985,2.313l1.566,1.754a1.049,1.049,0,0,0,1.618,0l1.566-1.754a6.529,6.529,0,0,1,9.969,0,8.376,8.376,0,0,1,0,10.963Z" transform="translate(0 -40.992)"/></g></g></svg>