<svg xmlns="http://www.w3.org/2000/svg" width="26" height="26" viewBox="0 0 33.168 33.711"><defs><style>.a{fill:#f5f4f5;}</style></defs><g transform="translate(-0.001 -80)"><g transform="translate(6.229 80)"><path class="a" d="M118.975,80H98.252c-1.144,0-2.072,1.371-2.072,3.063s.928,3.063,2.072,3.063h20.723c1.144,0,2.072-1.371,2.072-3.063S120.12,80,118.975,80Z" transform="translate(-96.18 -80)"/></g><g transform="translate(0.001 80.013)"><path class="a" d="M4.157,83.185a3.915,3.915,0,0,0-.611-2.159,1.644,1.644,0,0,0-2.922,0,3.914,3.914,0,0,0-.611,2.159,3.848,3.848,0,0,0,0,.6,3.821,3.821,0,0,0,.114.582,4.269,4.269,0,0,0,.2.521,2.885,2.885,0,0,0,.259.475,2.193,2.193,0,0,0,.311.368,1.659,1.659,0,0,0,.352.291,1.4,1.4,0,0,0,.435.23,1.233,1.233,0,0,0,.4,0,1.81,1.81,0,0,0,1.461-.888,2.885,2.885,0,0,0,.259-.475,4.269,4.269,0,0,0,.2-.521,3.746,3.746,0,0,0,.155-.582A3.848,3.848,0,0,0,4.157,83.185Z" transform="translate(-0.001 -80.135)"/></g><g transform="translate(0.012 93.797)"><path class="a" d="M4.325,227.185a3.864,3.864,0,0,0,0-.6,3.25,3.25,0,0,0-.155-.567,3.71,3.71,0,0,0-.2-.536,2.232,2.232,0,0,0-.259-.459,1.644,1.644,0,0,0-2.922,0,3.914,3.914,0,0,0-.611,2.159,4.855,4.855,0,0,0,.155,1.179,4.184,4.184,0,0,0,.187.521,2.92,2.92,0,0,0,.269.459,1.852,1.852,0,0,0,.311.383,1.651,1.651,0,0,0,.352.291,1.363,1.363,0,0,0,.394.168,1.19,1.19,0,0,0,.4.061,1.2,1.2,0,0,0,.4,0,1.31,1.31,0,0,0,.383-.168,1.677,1.677,0,0,0,.363-.291,1.853,1.853,0,0,0,.311-.383,2.263,2.263,0,0,0,.259-.459,2.953,2.953,0,0,0,.2-.521,3.475,3.475,0,0,0,.155-.643A3.739,3.739,0,0,0,4.325,227.185Z" transform="translate(-0.18 -224.135)"/></g><g transform="translate(0.012 107.58)"><path class="a" d="M4.323,371.185a3.88,3.88,0,0,0,0-.6,3.434,3.434,0,0,0-.155-.582,4.269,4.269,0,0,0-.2-.521,2.263,2.263,0,0,0-.259-.459,1.644,1.644,0,0,0-2.922,0,2.263,2.263,0,0,0-.259.459,4.269,4.269,0,0,0-.2.521,3.475,3.475,0,0,0-.114.582,3.851,3.851,0,0,0-.041.6,3.915,3.915,0,0,0,.611,2.159,1.853,1.853,0,0,0,.311.383,1.652,1.652,0,0,0,.352.291,1.363,1.363,0,0,0,.394.169,1.19,1.19,0,0,0,.4.061,1.2,1.2,0,0,0,.4,0,1.309,1.309,0,0,0,.383-.168,1.676,1.676,0,0,0,.363-.291,1.849,1.849,0,0,0,.311-.383,2.259,2.259,0,0,0,.259-.459,2.939,2.939,0,0,0,.2-.521,3.488,3.488,0,0,0,.155-.643A3.738,3.738,0,0,0,4.323,371.185Z" transform="translate(-0.178 -368.135)"/></g><g transform="translate(6.229 93.784)"><path class="a" d="M121.047,224h-22.8c-1.144,0-2.072,1.371-2.072,3.063s.928,3.063,2.072,3.063h22.8c1.144,0,2.072-1.371,2.072-3.063S122.192,224,121.047,224Z" transform="translate(-96.18 -224)"/></g><g transform="translate(6.229 107.567)"><path class="a" d="M111.722,368H98.252c-1.144,0-2.072,1.371-2.072,3.063s.928,3.063,2.072,3.063h13.47c1.144,0,2.072-1.371,2.072-3.063S112.867,368,111.722,368Z" transform="translate(-96.18 -368)"/></g></g></svg>