<svg xmlns="http://www.w3.org/2000/svg" width="62.042" height="53.768" viewBox="0 0 62.042 53.768"><defs><style>.a,.b{fill:#fff;}.b{fill-rule:evenodd;}</style></defs><g transform="translate(0 0)"><g transform="translate(3.878)"><path class="a" d="M31.143,0C16.152,0,4,11.235,4,25.092v8.961a1.869,1.869,0,0,0,1.939,1.793,1.871,1.871,0,0,0,1.939-1.792V25.092c0-11.878,10.416-21.507,23.266-21.507s23.266,9.629,23.266,21.507v8.961a1.945,1.945,0,0,0,3.878,0V25.092C58.286,11.235,46.134,0,31.143,0Z" transform="translate(-4)"/></g><g transform="translate(0 30.469)"><path class="b" d="M6.786,34C.9,34,0,38.409,0,43.853S.9,53.71,6.786,53.71,9.694,49.3,9.694,43.853,12.675,34,6.786,34Zm49.056,0c-5.566,0-2.749,4.413-2.749,9.857s-2.817,9.857,2.749,9.857,6.2-4.413,6.2-9.857S61.407,34,55.841,34Z" transform="translate(0 -33.996)"/></g><g transform="translate(5.816 26.884)"><path class="b" d="M11.816,30A5.61,5.61,0,0,0,6,35.373V51.5a5.609,5.609,0,0,0,5.816,5.377A5.61,5.61,0,0,0,17.633,51.5V35.373A5.611,5.611,0,0,0,11.816,30Zm38.776,0a5.61,5.61,0,0,0-5.816,5.377V51.5a5.834,5.834,0,0,0,11.633,0V35.373A5.611,5.611,0,0,0,50.592,30Z" transform="translate(-6 -29.996)"/></g></g></svg>