<svg xmlns="http://www.w3.org/2000/svg" width="26" height="26" viewBox="0 0 33.958 33.379"><defs><style>.a{fill:#f5f4f5;}</style></defs><g transform="translate(0 -16.069)"><path class="a" d="M180.972,26.985a11.61,11.61,0,0,0-4.365-4.55,12.494,12.494,0,0,1-3.223-2.886l-.153-.218a5.753,5.753,0,0,1-1.123-2.131,1.21,1.21,0,0,0-1.283-1.107,1.255,1.255,0,0,0-1.128,1.281V40.252a6.723,6.723,0,0,0-3.637-1.053c-3.341,0-6.062,2.3-6.062,5.135s2.721,5.135,6.062,5.135,6.062-2.3,6.062-5.135V29.371a9.075,9.075,0,0,1,5.621,7,6.954,6.954,0,0,1-.468.7,1.334,1.334,0,0,0,.109,1.81,1.162,1.162,0,0,0,1.709-.116,13.555,13.555,0,0,0,2.725-7.544,8.946,8.946,0,0,0-.849-4.234Z" transform="translate(-147.876 -0.022)"/><path class="a" d="M1.212,18.637H15.761a1.286,1.286,0,0,0,0-2.568H1.212a1.286,1.286,0,0,0,0,2.568Z"/><path class="a" d="M1.212,114.637H15.761a1.286,1.286,0,0,0,0-2.568H1.212a1.286,1.286,0,0,0,0,2.568Z" transform="translate(0 -88.297)"/><path class="a" d="M8.487,208.069H1.212a1.286,1.286,0,0,0,0,2.568H8.487a1.286,1.286,0,0,0,0-2.568Z" transform="translate(0 -176.594)"/><path class="a" d="M8.487,304.069H1.212a1.286,1.286,0,0,0,0,2.568H8.487a1.286,1.286,0,0,0,0-2.568Z" transform="translate(0 -264.892)"/></g></svg>